<svg viewBox="0 0 40 40" fill="none" xmlns="http://www.w3.org/2000/svg">
<path d="M5 15.2857C5 11.6854 5 9.88521 5.70067 8.51006C6.317 7.30045 7.30045 6.317 8.51006 5.70067C9.88521 5 11.6854 5 15.2857 5H24.7143C28.3146 5 30.1148 5 31.4899 5.70067C32.6996 6.317 33.683 7.30045 34.2993 8.51006C35 9.88521 35 11.6854 35 15.2857V24.7143C35 28.3146 35 30.1148 34.2993 31.4899C33.683 32.6996 32.6996 33.683 31.4899 34.2993C30.1148 35 28.3146 35 24.7143 35H15.2857C11.6854 35 9.88521 35 8.51006 34.2993C7.30045 33.683 6.317 32.6996 5.70067 31.4899C5 30.1148 5 28.3146 5 24.7143V15.2857Z" fill="url(#paint0_radial_658_2705)"/>
<path d="M5 15.2857C5 11.6854 5 9.88521 5.70067 8.51006C6.317 7.30045 7.30045 6.317 8.51006 5.70067C9.88521 5 11.6854 5 15.2857 5H24.7143C28.3146 5 30.1148 5 31.4899 5.70067C32.6996 6.317 33.683 7.30045 34.2993 8.51006C35 9.88521 35 11.6854 35 15.2857V24.7143C35 28.3146 35 30.1148 34.2993 31.4899C33.683 32.6996 32.6996 33.683 31.4899 34.2993C30.1148 35 28.3146 35 24.7143 35H15.2857C11.6854 35 9.88521 35 8.51006 34.2993C7.30045 33.683 6.317 32.6996 5.70067 31.4899C5 30.1148 5 28.3146 5 24.7143V15.2857Z" fill="url(#paint1_radial_658_2705)"/>
<path d="M5 15.2857C5 11.6854 5 9.88521 5.70067 8.51006C6.317 7.30045 7.30045 6.317 8.51006 5.70067C9.88521 5 11.6854 5 15.2857 5H24.7143C28.3146 5 30.1148 5 31.4899 5.70067C32.6996 6.317 33.683 7.30045 34.2993 8.51006C35 9.88521 35 11.6854 35 15.2857V24.7143C35 28.3146 35 30.1148 34.2993 31.4899C33.683 32.6996 32.6996 33.683 31.4899 34.2993C30.1148 35 28.3146 35 24.7143 35H15.2857C11.6854 35 9.88521 35 8.51006 34.2993C7.30045 33.683 6.317 32.6996 5.70067 31.4899C5 30.1148 5 28.3146 5 24.7143V15.2857Z" fill="#012741"/>
<path d="M27.4999 14.1071C27.4999 14.9948 26.7804 15.7143 25.8928 15.7143C25.0052 15.7143 24.2856 14.9948 24.2856 14.1071C24.2856 13.2195 25.0052 12.5 25.8928 12.5C26.7804 12.5 27.4999 13.2195 27.4999 14.1071Z" fill="white"/>
<path fill-rule="evenodd" clip-rule="evenodd" d="M19.9999 25.3571C22.9586 25.3571 25.3571 22.9587 25.3571 20C25.3571 17.0413 22.9586 14.6429 19.9999 14.6429C17.0413 14.6429 14.6428 17.0413 14.6428 20C14.6428 22.9587 17.0413 25.3571 19.9999 25.3571ZM19.9999 23.2143C21.7751 23.2143 23.2142 21.7752 23.2142 20C23.2142 18.2248 21.7751 16.7857 19.9999 16.7857C18.2247 16.7857 16.7856 18.2248 16.7856 20C16.7856 21.7752 18.2247 23.2143 19.9999 23.2143Z" fill="white"/>
<path fill-rule="evenodd" clip-rule="evenodd" d="M9.28564 19.5714C9.28564 15.9711 9.28564 14.1709 9.98632 12.7958C10.6026 11.5862 11.5861 10.6027 12.7957 9.98639C14.1709 9.28572 15.971 9.28572 19.5714 9.28572H20.4285C24.0288 9.28572 25.829 9.28572 27.2042 9.98639C28.4138 10.6027 29.3972 11.5862 30.0135 12.7958C30.7142 14.1709 30.7142 15.9711 30.7142 19.5714V20.4286C30.7142 24.0289 30.7142 25.8291 30.0135 27.2042C29.3972 28.4138 28.4138 29.3973 27.2042 30.0136C25.829 30.7143 24.0288 30.7143 20.4285 30.7143H19.5714C15.971 30.7143 14.1709 30.7143 12.7957 30.0136C11.5861 29.3973 10.6026 28.4138 9.98632 27.2042C9.28564 25.8291 9.28564 24.0289 9.28564 20.4286V19.5714ZM19.5714 11.4286H20.4285C22.264 11.4286 23.5118 11.4302 24.4763 11.509C25.4157 11.5858 25.8962 11.7249 26.2313 11.8957C27.0377 12.3066 27.6934 12.9622 28.1042 13.7686C28.275 14.1038 28.4141 14.5842 28.4909 15.5237C28.5697 16.4881 28.5714 17.7359 28.5714 19.5714V20.4286C28.5714 22.2641 28.5697 23.5119 28.4909 24.4764C28.4141 25.4158 28.275 25.8963 28.1042 26.2314C27.6934 27.0378 27.0377 27.6934 26.2313 28.1043C25.8962 28.2751 25.4157 28.4142 24.4763 28.491C23.5118 28.5698 22.264 28.5714 20.4285 28.5714H19.5714C17.7358 28.5714 16.4881 28.5698 15.5236 28.491C14.5841 28.4142 14.1037 28.2751 13.7685 28.1043C12.9621 27.6934 12.3065 27.0378 11.8956 26.2314C11.7249 25.8963 11.5857 25.4158 11.509 24.4764C11.4302 23.5119 11.4285 22.2641 11.4285 20.4286V19.5714C11.4285 17.7359 11.4302 16.4881 11.509 15.5237C11.5857 14.5842 11.7249 14.1038 11.8956 13.7686C12.3065 12.9622 12.9621 12.3066 13.7685 11.8957C14.1037 11.7249 14.5841 11.5858 15.5236 11.509C16.4881 11.4302 17.7358 11.4286 19.5714 11.4286Z" fill="white"/>
<defs>
<radialGradient id="paint0_radial_658_2705" cx="0" cy="0" r="1" gradientUnits="userSpaceOnUse" gradientTransform="translate(15.7143 27.5) rotate(-55.3758) scale(27.3424)">
<stop stop-color="#B13589"/>
<stop offset="0.79309" stop-color="#C62F94"/>
<stop offset="1" stop-color="#8A3AC8"/>
</radialGradient>
<radialGradient id="paint1_radial_658_2705" cx="0" cy="0" r="1" gradientUnits="userSpaceOnUse" gradientTransform="translate(14.6429 36.0714) rotate(-65.1363) scale(24.2081)">
<stop stop-color="#E0E8B7"/>
<stop offset="0.444662" stop-color="#FB8A2E"/>
<stop offset="0.71474" stop-color="#E2425C"/>
<stop offset="1" stop-color="#E2425C" stop-opacity="0"/>
</radialGradient>
</defs>
</svg>
