<svg viewBox="0 0 40 40" fill="none" xmlns="http://www.w3.org/2000/svg">
<rect x="3.33325" y="3.33333" width="33.3333" height="33.3333" rx="16.6667" fill="#012741"/>
<path d="M15.9746 12.4907C15.9746 13.6032 15.0102 14.5051 13.8207 14.5051C12.6311 14.5051 11.6667 13.6032 11.6667 12.4907C11.6667 11.3781 12.6311 10.4762 13.8207 10.4762C15.0102 10.4762 15.9746 11.3781 15.9746 12.4907Z" fill="white"/>
<path d="M11.9613 15.9858H15.6432V27.1429H11.9613V15.9858Z" fill="white"/>
<path d="M21.571 15.9858H17.8891V27.1429H21.571C21.571 27.1429 21.571 23.6305 21.571 21.4344C21.571 20.1162 22.0211 18.7923 23.817 18.7923C25.8465 18.7923 25.8343 20.5173 25.8248 21.8537C25.8125 23.6005 25.842 25.3832 25.842 27.1429H29.5239V21.2544C29.4927 17.4945 28.513 15.762 25.2897 15.762C23.3756 15.762 22.189 16.631 21.571 17.4173V15.9858Z" fill="white"/>
</svg>
