<?xml version="1.0" encoding="UTF-8"?>
<svg id="Calque_1" xmlns="http://www.w3.org/2000/svg" viewBox="0 0 2000 464.25">
<defs>
</defs>
<path class="cls-1" fill="inherit" d="M961.25,464.25c-10.72,0-21.09-4.41-28.67-12.55-10.22-10.98-13.3-26.53-8.03-40.57L1069.05,25.52C1074.79,10.2,1089.07,.18,1105.42,0c.15,0,.3,0,.45,0,16.17,0,30.46,9.66,36.48,24.71l154.16,385.4c5.63,14.08,2.8,29.8-7.4,41.03-10.19,11.23-25.57,15.56-40.12,11.3l-137.56-40.19c-.65-.19-1.35-.19-2,0l-136.96,40.38c-3.71,1.09-7.49,1.63-11.22,1.63ZM1105.87,35.76s-.04,0-.06,0c-2.43,.03-3.08,1.74-3.29,2.31l-144.5,385.61c-.51,1.37-.27,2.6,.73,3.67,.99,1.07,2.21,1.4,3.6,.99l136.96-40.38c7.24-2.13,14.9-2.14,22.14-.03l137.56,40.19c1.41,.41,2.64,.07,3.62-1.02,.99-1.09,1.22-2.34,.67-3.71L1109.15,37.99c-.22-.55-.89-2.23-3.28-2.23Z"/>
<g>
<path d="M338.83,98.51c-24.97-36.99-52.79-61.77-85.03-75.74-31.06-13.46-66.57-16.97-108.59-10.73C78.11,22.36,28.49,61.31,15.71,113.68c-5.46,22.37-3.53,45.77,5.58,67.65,9.68,23.26,26.79,43.98,50.86,61.58l.09,.07c32.33,23.01,69.21,32.68,104.21,40.61l.12,.03c50.65,10.75,71.35,34.4,69.39,53.08-1.93,18.42-27.53,38.24-79.18,38.24-39.75,0-71.05-15.64-95.69-47.81-5.5-7.58-16.35-9.75-24.87-4.97l-35.36,18.29-.21,.11c-5.08,2.81-8.76,7.54-10.09,12.98-1.25,5.13-.34,10.42,2.58,14.9,35.13,57.59,90.39,86.79,164.25,86.79,60.81,0,113.37-22.18,140.6-59.33,20.8-28.38,25.51-63.31,13.6-101.04-9.18-29.04-26.25-50.18-52.2-64.64-22.32-12.44-48.3-18.44-73.41-24.25-28.91-6.68-56.22-13-76.55-28.25-18.9-13.94-27.15-30.27-23.23-45.97,4.97-19.95,28.53-35.38,61.51-40.26,49.26-7.44,87.69,8.95,114.23,48.7,5.4,8.46,16.35,11.38,25.55,6.78l34.69-19.8c4.78-2.68,8.26-7.29,9.55-12.67,1.31-5.46,.27-11.27-2.87-15.96l-.02-.03Z"/>
<path d="M895.67,8.25h-29.98c-10.02,0-19.5,6.69-22.55,15.92l-38.03,126.97-24.53,85.79-13.33,52.14-17.35-52.49-31.32-85.94-26.9-69.08c-2.99-9.3-12.18-15.76-22.5-15.76h-41.62c-10.64,0-19.42,6.16-22.49,15.73l-27.41,68.87-30.72,85.98-17.44,52.7-13.27-51.91-24.56-85.92-37.99-126.83-.08-.24c-3.05-9.22-12.53-15.92-22.55-15.92h-29.98c-8.27,0-15.88,4.09-20.36,10.94-4.24,6.48-5.04,14.51-2.2,21.63l29.82,115.11,23.94,85.93,56.96,196.56c2.83,9.52,12.13,16.18,22.63,16.18h32.42c10.73,0,19.55-6.23,22.55-15.91l25.65-71.42,40.49-125.15,15.39-51.28,15.33,51.1,40.46,125.07,25.74,71.68c3,9.67,11.82,15.91,22.55,15.91h32.45c10.48,0,19.78-6.65,22.62-16.23l56.97-196.6,23.88-85.68,29.87-115.26c2.84-7.12,2.04-15.15-2.2-21.63-4.48-6.85-12.09-10.94-20.36-10.94Z"/>
<path d="M1643.74,10.8l-208.35-1.21c-1.13-.42-2.32-.64-3.51-.64h-37.33c-10.28,0-18.64,8.6-18.71,19.21l-2.44,94.78v218.15s2.44,95.01,2.44,95.01c.06,10.78,8.26,19.21,18.71,19.21h37.33c10.09,0,18.21-7.75,19.29-18.44l.04-.36,1.85-95.24v-60.53s130.09-1.73,130.09-1.73c10.46-.04,18.64-8.24,18.64-18.71v-34.89c0-9.85-7.61-18.14-17.71-19.28l-.46-.05-130.56-1.15V123.17l-1.01-37.69,191.63-1.74c10.49,0,18.71-8.22,18.71-18.71V30.14c0-10.84-8.22-19.34-18.66-19.34Z"/>
<path d="M2000,64.32V29.43c0-10.66-8.67-19.34-19.27-19.34l-248.59-1.84c-10.45,0-19.28,8.8-19.34,19.24l-1.82,94.8v218.09s1.82,94.97,1.82,94.97c.05,10.62,8.71,19.24,19.4,19.24l248.45-1.84c10.84,0,19.34-8.48,19.34-19.31v-34.89c0-10.49-8.49-18.71-19.25-18.71l-191.22-1.76,.5-37.57v-60.48s130.11-1.73,130.11-1.73c10.62-.04,19.24-8.42,19.24-18.71v-34.89c0-9.81-7.87-18.1-18.31-19.28l-.46-.05-130.59-1.15V122.46l-.5-37.69,191.13-1.74c10.84,0,19.34-8.22,19.34-18.71Z"/>
</g>
</svg>