<svg width="60" height="60" viewBox="0 0 60 60" fill="none" xmlns="http://www.w3.org/2000/svg">
<g clip-path="url(#clip0_96_224)">
<path d="M48.75 24.375C48.75 41.25 30 54.375 30 54.375C30 54.375 11.25 41.25 11.25 24.375C11.25 19.4022 13.2254 14.6331 16.7417 11.1167C20.2581 7.60044 25.0272 5.625 30 5.625C34.9728 5.625 39.7419 7.60044 43.2583 11.1167C46.7746 14.6331 48.75 19.4022 48.75 24.375V24.375Z" stroke="inherit" stroke-width="3" stroke-linecap="round" stroke-linejoin="round"/>
<path d="M30 31.875C34.1421 31.875 37.5 28.5171 37.5 24.375C37.5 20.2329 34.1421 16.875 30 16.875C25.8579 16.875 22.5 20.2329 22.5 24.375C22.5 28.5171 25.8579 31.875 30 31.875Z" stroke="inherit" stroke-width="3" stroke-linecap="round" stroke-linejoin="round"/>
</g>
<defs>
<clipPath id="clip0_96_224">
<rect width="60" height="60" fill="white"/>
</clipPath>
</defs>
</svg>
