<svg width="40" height="40" viewBox="0 0 40 40" fill="none" xmlns="http://www.w3.org/2000/svg">
<g clip-path="url(#clip0_157_396)">
<path d="M37.3754 15.2188C37.219 14.7265 36.9174 14.2931 36.5104 13.9752C36.1033 13.6574 35.6096 13.4699 35.0942 13.4375L25.8129 12.7969L22.3754 4.125C22.1877 3.64751 21.861 3.23735 21.4376 2.94763C21.0141 2.65791 20.5135 2.50197 20.0004 2.5C19.4874 2.50197 18.9867 2.65791 18.5633 2.94763C18.1398 3.23735 17.8131 3.64751 17.6254 4.125L14.1254 12.8438L4.90667 13.4375C4.39184 13.472 3.89921 13.6602 3.49251 13.9778C3.08581 14.2954 2.78375 14.7277 2.62542 15.2188C2.46283 15.7174 2.45333 16.2533 2.59815 16.7574C2.74297 17.2614 3.03546 17.7106 3.43792 18.0469L10.5317 24.0469L8.4223 32.3438C8.27636 32.905 8.30262 33.4972 8.49768 34.0434C8.69273 34.5896 9.04756 35.0644 9.51605 35.4062C9.97078 35.7326 10.5126 35.9159 11.072 35.9326C11.6315 35.9493 12.1833 35.7987 12.6567 35.5L19.9848 30.8594H20.016L27.9067 35.8438C28.3114 36.1068 28.7833 36.2478 29.266 36.25C29.6602 36.2469 30.0484 36.1535 30.4008 35.9769C30.7531 35.8003 31.0604 35.5453 31.2988 35.2314C31.5372 34.9176 31.7005 34.5532 31.7761 34.1664C31.8516 33.7795 31.8375 33.3805 31.7348 33L29.5004 23.9219L36.5629 18.0469C36.9654 17.7106 37.2579 17.2614 37.4027 16.7574C37.5475 16.2533 37.538 15.7174 37.3754 15.2188Z" fill="inherit"/>
</g>
<defs>
<clipPath id="clip0_157_396">
<rect width="40" height="40" fill="white"/>
</clipPath>
</defs>
</svg>
